<?xml version="1.0" encoding="utf-8"?>
<!-- Generator: Adobe Illustrator 27.5.0, SVG Export Plug-In . SVG Version: 6.00 Build 0)  -->
<svg version="1.1" id="Layer_1" xmlns="http://www.w3.org/2000/svg" xmlns:xlink="http://www.w3.org/1999/xlink" x="0px" y="0px"
	 viewBox="0 0 841.89 841.89" style="enable-background:new 0 0 841.89 841.89;" xml:space="preserve">
<style type="text/css">
	.st0{fill:#EE3224;}
</style>
<g>
	<circle class="st0" cx="473.15" cy="405.95" r="78.39"/>
	<g>
		<path d="M607.03,619.87l0.3-130.64l0.06-0.02l0-29.12l-0.04-5.16l-3.05,1.62l-1.69,0.96l-22.24,13.25L551.76,487l0.04-0.14
			l-0.6,0.47l-6.21,3.52l-5-11.76l-0.02-0.02l-1.21-3.2l-0.17-0.45l-21.7,13.42l-62.09,35.66l-27.62,15.88l65.14,37.8l2.26-1.31
			l25.76-15.05l-36.73-21.32l22.45-12.9l0,0.13l3.89-2.35l7.86-4.53l6.9,16.21l15.59-9.02l0.22-0.17l38.55-22.24l-0.16,73.88
			c0,3.4-1.77,6.44-4.72,8.13c-2.95,1.69-6.45,1.68-9.39-0.03l-10.44-6.06l-26.86,17.03l0.69,0.4l0.33,0.19l56.98,33.07
			c4.48,2.6,9.84,2.61,14.34,0.03C604.33,629.69,607.02,625.05,607.03,619.87z"/>
		<path d="M383.33,482.22l-54.88-31.82l-0.78-0.51c-10.48-6.85-16.23-18.3-16.24-30.04h0c0.02-11.73,5.77-23.18,16.24-30.03
			l0.78-0.51l54.88-31.82l5.07-2.79l-3.64-2.27l-23.56-14.18l-1.3,0.68l-118.33,68.67c-4.43,2.58-7.1,7.15-7.13,12.27h0
			c0.04,5.12,2.7,9.68,7.13,12.26l118.33,68.67l1.3,0.68l23.56-14.18l3.64-2.27L383.33,482.22z"/>
		<path d="M605.91,370.27l-3.01-11.34l-8.81-30.61l8.2,4.76l0.01,0.23l4.93,2.86l-0.02-4.32l0.24-109.59
			c0.02-5.24-2.69-9.95-7.22-12.58c0,0,0,0-0.01-0.01c-4.54-2.63-9.96-2.64-14.52-0.04l-132.2,75.95l-27.46,15.7l27.09,16.38l0,0.13
			l0.11-0.06l0,0v0l25.96-14.91l3.55-2.04l82.51-47.39c1.5-0.87,3.14-1.29,4.8-1.28c1.64,0,3.29,0.44,4.79,1.31
			c2.99,1.73,4.78,4.84,4.77,8.3l-0.06,26.29l-21.45-12.44l-9.27,5.31l7.04,21.66l25.93,87.62l21.01-12.32l4.38-2.58l0.04-0.02
			l-0.04-0.15L605.91,370.27z"/>
	</g>
</g>
</svg>
