<?xml version="1.0" encoding="utf-8"?>
<!-- Generator: Adobe Illustrator 27.5.0, SVG Export Plug-In . SVG Version: 6.00 Build 0)  -->
<svg version="1.1" id="Layer_1" xmlns="http://www.w3.org/2000/svg" xmlns:xlink="http://www.w3.org/1999/xlink" x="0px" y="0px"
	 viewBox="0 0 841.89 841.89" style="enable-background:new 0 0 841.89 841.89;" xml:space="preserve">
<style type="text/css">
	.st0{fill:#EE3224;}
	.st1{fill:#231F20;}
</style>
<g>
	
		<ellipse transform="matrix(0.7071 -0.7071 0.7071 0.7071 -204.3159 431.1108)" class="st0" cx="418.24" cy="462.19" rx="90.16" ry="90.16"/>
	<path class="st1" d="M663.48,610.52l-75.09-130.08l0.04-0.06l-16.8-28.96l-3.02-5.11l-2.1,3.38l-1.12,1.93l-14.47,26.01
		l-19.07,32.65l-0.04-0.16l-0.33,0.81l-4.14,7.08l-11.76-8.81l-0.03-0.01l-3.05-2.48l-0.43-0.35l-13.84,25.87l-41.16,71.29
		l-18.31,31.73h86.59l1.49-2.61l16.93-29.83h-48.83l14.89-25.78l0.07,0.13l2.51-4.58l5.21-9.04l16.22,12.13l10.3-17.96l0.11-0.3
		l25.5-44.36l42.47,73.56c1.96,3.38,1.96,7.42,0,10.81c-1.96,3.38-5.45,5.39-9.35,5.39h-13.88l-16.88,32.44h0.92h0.44h75.75
		c5.96,0,11.3-3.08,14.28-8.24C666.46,621.84,666.46,615.67,663.48,610.52z"/>
	<g>
		<path class="st1" d="M664.44,610.16l-75.38-129.98l0.05-0.05l-16.87-28.93l-3.03-5.1l-2.09,3.38L566,451.4l-14.42,26.05
			l-19.02,32.71l-0.04-0.16l-0.32,0.81l-4.13,7.09l-11.78-8.79l-0.03-0.01l-3.06-2.48l-0.43-0.35l-13.79,25.9l-41.04,71.4
			l-18.24,31.78l86.62-0.18l1.49-2.61l16.88-29.88l-48.85,0.09l14.83-25.82l0.08,0.13l2.5-4.59l5.19-9.05l16.25,12.11l10.27-17.99
			l0.12-0.3l25.42-44.43l42.64,73.5c1.97,3.38,1.97,7.42,0.02,10.81s-5.44,5.41-9.35,5.41l-13.88,0.03l-16.82,32.48l0.92,0l0.44,0
			l75.77-0.15c5.96-0.01,11.29-3.11,14.27-8.28C667.44,621.48,667.43,615.31,664.44,610.16z"/>
		<path class="st1" d="M506.31,396.53l13.74-24.42l2.86-5.09l0.03-0.04l-0.13-0.13l-4.08-4.04l-9.56-9.53l-26.42-25.23l-0.07-0.07
			l10.91-0.02l0.14,0.22l6.17-0.02h0.39l-2.52-4.29l-63.25-109.02c-2.48-4.3-6.6-7.16-11.33-8.03c-0.31-0.05-0.64-0.1-0.96-0.15
			c-0.52-0.07-1.04-0.11-1.57-0.13c-0.2-0.01-0.4-0.01-0.61-0.01c0,0,0,0-0.01-0.01h-0.04c0,0,0,0-0.01,0
			c-0.36,0-0.71,0.01-1.06,0.04c-5.57,0.37-10.49,3.44-13.33,8.34l-87.36,152.04l-0.1,0.17l17.98,31.82l17.28-29.94l2.36-4.08
			l54.7-94.75c0.99-1.73,2.38-3.09,4.03-4.05c1.63-0.95,3.51-1.46,5.51-1.46c0.29,0,0.58,0.01,0.86,0.04
			c3.69,0.21,6.98,2.22,8.87,5.46l15.16,26.16h-0.26l-12.41,0.03l-15.84,0.04l-6.14,10.65l19.54,17.44l76.26,71.79L506.31,396.53z"
			/>
		<path class="st1" d="M363.08,602.73l-74.43,0.02l-1.06-0.06c-6.13-0.32-11.88-1.97-17-4.66c-0.02-0.01-0.05-0.03-0.08-0.04
			c-13.12-6.94-21.98-20.74-21.98-36.51c0-11.21,5.38-20.83,11.36-30.51l0.17-0.27c2.35-4.1,7.87-13.65,9.95-17.22l22.16-38.4
			l-1.14-1.8l-18.14-28.61l-2.34,4.06c-3.78,6.51-10.25,17.73-12.86,22.25l-80.28,139.02c-2.96,5.16-2.96,11.32,0.01,16.49
			c1.27,2.19,2.96,4.01,4.94,5.36c0.64,0.51,1.31,0.97,2.02,1.36c2.43,1.38,5.24,2.13,8.18,2.13l157.35-0.31l1.69,0.01l15.19-27.82
			l2.3-4.36l-4.93,0.1C363.72,602.76,363.3,602.73,363.08,602.73z"/>
	</g>
	<path class="st1" d="M522.51,367.13l-0.02,0.04l-2.87,5.09l-13.57,24.02l-0.2,0.37l-76.35-72.17L409.99,307l6.16-10.63h28.51
		l-0.01-0.03l-15.1-26.15c-1.84-3.2-5.05-5.2-8.68-5.47c-0.28-0.03-0.57-0.04-0.86-0.04c-2,0-3.89,0.51-5.51,1.46
		c-1.65,0.95-3.04,2.31-4.03,4.05l-54.7,94.75l-2.36,4.08l-17.28,29.94l-17.98-31.82l0.1-0.17L405.6,214.9
		c2.84-4.9,7.75-7.96,13.33-8.34c0.35-0.03,0.7-0.04,1.06-0.04c0.01,0,0.01,0,0.01,0h0.04c0.21,0,0.42,0.01,0.62,0.01
		c0.52,0.01,1.05,0.06,1.57,0.13c0.32,0.04,0.64,0.1,0.96,0.15c4.71,0.91,8.79,3.77,11.26,8.05l63,109.12l2.45,4.17l0.07,0.12h-6.56
		l-0.14-0.23h-10.9l26.42,25.36l9.54,9.54l4.05,4.06L522.51,367.13z"/>
</g>
</svg>
